<?xml version="1.0" encoding="UTF-8"?>
<svg xmlns="http://www.w3.org/2000/svg" xmlns:xlink="http://www.w3.org/1999/xlink" width="82.11" height="89.27" viewBox="0 0 82.11 89.27">
<defs>
<clipPath id="clip-0">
<path clip-rule="nonzero" d="M 40 5 L 81.230469 5 L 81.230469 88.429688 L 40 88.429688 Z M 40 5 "/>
</clipPath>
<clipPath id="clip-1">
<path clip-rule="nonzero" d="M 0 5 L 41 5 L 41 88.429688 L 0 88.429688 Z M 0 5 "/>
</clipPath>
<clipPath id="clip-2">
<path clip-rule="nonzero" d="M 1 0.117188 L 80 0.117188 L 80 57 L 1 57 Z M 1 0.117188 "/>
</clipPath>
</defs>
<g clip-path="url(#clip-0)">
<path fill-rule="nonzero" fill="rgb(46.09375%, 82.434082%, 91.836548%)" fill-opacity="1" d="M 79.574219 5.535156 L 40.613281 56.644531 L 40.625 56.65625 L 55.628906 76.339844 L 63.457031 86.613281 C 65.984375 89.929688 71.136719 88.40625 71.664062 84.488281 L 71.667969 84.453125 C 71.671875 84.429688 71.675781 84.40625 71.675781 84.386719 L 71.972656 81.84375 L 81.117188 12.996094 C 81.5 10.28125 80.882812 7.675781 79.574219 5.535156 "/>
</g>
<g clip-path="url(#clip-1)">
<path fill-rule="nonzero" fill="rgb(68.232727%, 7.278442%, 16.244507%)" fill-opacity="1" d="M 0.113281 12.996094 L 9.257812 81.84375 L 9.550781 84.386719 C 9.554688 84.40625 9.558594 84.429688 9.558594 84.453125 L 9.566406 84.488281 C 10.09375 88.40625 15.242188 89.929688 17.773438 86.613281 L 25.601562 76.339844 L 40.605469 56.65625 L 40.613281 56.644531 L 1.65625 5.535156 C 0.34375 7.675781 -0.269531 10.28125 0.113281 12.996094 "/>
</g>
<g clip-path="url(#clip-2)">
<path fill-rule="nonzero" fill="rgb(44.27948%, 36.462402%, 69.10553%)" fill-opacity="1" d="M 79.496094 5.414062 C 79.402344 5.265625 79.304688 5.117188 79.203125 4.96875 C 79.191406 4.949219 79.175781 4.925781 79.160156 4.90625 C 79.140625 4.878906 79.117188 4.855469 79.097656 4.828125 C 78.914062 4.578125 78.722656 4.328125 78.519531 4.089844 C 78.476562 4.039062 78.4375 3.992188 78.394531 3.941406 C 78.175781 3.695312 77.945312 3.457031 77.707031 3.230469 C 77.652344 3.175781 77.59375 3.125 77.539062 3.074219 C 77.285156 2.84375 77.027344 2.621094 76.753906 2.414062 C 76.738281 2.402344 76.726562 2.390625 76.710938 2.382812 C 76.441406 2.179688 76.15625 1.988281 75.867188 1.808594 C 75.808594 1.773438 75.746094 1.734375 75.6875 1.699219 C 75.394531 1.523438 75.09375 1.363281 74.785156 1.214844 C 74.722656 1.1875 74.660156 1.160156 74.59375 1.128906 C 74.269531 0.980469 73.9375 0.84375 73.597656 0.726562 C 73.59375 0.726562 73.589844 0.726562 73.585938 0.722656 C 73.246094 0.609375 72.898438 0.511719 72.542969 0.429688 C 72.476562 0.414062 72.410156 0.394531 72.339844 0.382812 C 71.992188 0.304688 71.640625 0.246094 71.28125 0.203125 C 71.210938 0.195312 71.140625 0.191406 71.070312 0.183594 C 70.695312 0.148438 70.316406 0.121094 69.929688 0.121094 L 69.78125 0.121094 C 66.589844 0.121094 63.421875 0.601562 60.347656 1.457031 C 55.804688 2.71875 51.082031 3.550781 46.230469 3.917969 C 45.484375 3.972656 44.734375 4.015625 43.984375 4.050781 C 42.867188 4.101562 41.746094 4.136719 40.613281 4.136719 C 39.539062 4.136719 38.472656 4.105469 37.410156 4.058594 C 36.554688 4.023438 35.703125 3.96875 34.855469 3.90625 C 30.054688 3.53125 25.378906 2.707031 20.882812 1.457031 C 17.808594 0.601562 14.640625 0.121094 11.449219 0.121094 L 11.300781 0.121094 C 11.300781 0.121094 11.296875 0.121094 11.296875 0.121094 C 10.910156 0.121094 10.53125 0.148438 10.15625 0.183594 C 10.085938 0.191406 10.015625 0.195312 9.949219 0.203125 C 9.589844 0.246094 9.234375 0.304688 8.886719 0.382812 C 8.820312 0.394531 8.753906 0.414062 8.6875 0.429688 C 8.332031 0.511719 7.984375 0.609375 7.640625 0.722656 C 7.640625 0.726562 7.636719 0.726562 7.632812 0.726562 C 7.289062 0.84375 6.960938 0.980469 6.632812 1.128906 C 6.570312 1.160156 6.507812 1.1875 6.445312 1.214844 C 6.136719 1.363281 5.835938 1.523438 5.542969 1.699219 C 5.480469 1.734375 5.421875 1.773438 5.363281 1.808594 C 5.074219 1.988281 4.789062 2.179688 4.519531 2.382812 C 4.503906 2.390625 4.488281 2.402344 4.476562 2.414062 C 4.203125 2.621094 3.945312 2.84375 3.691406 3.074219 C 3.636719 3.125 3.578125 3.175781 3.523438 3.230469 C 3.28125 3.457031 3.054688 3.695312 2.835938 3.941406 C 2.792969 3.992188 2.75 4.039062 2.710938 4.089844 C 2.507812 4.328125 2.316406 4.578125 2.128906 4.828125 C 2.109375 4.855469 2.089844 4.878906 2.070312 4.90625 C 2.054688 4.925781 2.039062 4.949219 2.023438 4.96875 C 1.921875 5.117188 1.828125 5.265625 1.730469 5.414062 C 1.707031 5.457031 1.679688 5.492188 1.65625 5.535156 L 40.613281 56.644531 L 79.574219 5.535156 C 79.550781 5.492188 79.523438 5.457031 79.496094 5.414062 "/>
</g>
</svg>
