<?xml version="1.0" encoding="UTF-8"?>
<svg xmlns="http://www.w3.org/2000/svg" xmlns:xlink="http://www.w3.org/1999/xlink" width="500.54" height="89.27" viewBox="0 0 500.54 89.27">
<defs>
<clipPath id="clip-0">
<path clip-rule="nonzero" d="M 483 26 L 498.28125 26 L 498.28125 55 L 483 55 Z M 483 26 "/>
</clipPath>
<clipPath id="clip-1">
<path clip-rule="nonzero" d="M 42 5 L 84 5 L 84 88.546875 L 42 88.546875 Z M 42 5 "/>
</clipPath>
<clipPath id="clip-2">
<path clip-rule="nonzero" d="M 1.800781 5 L 43 5 L 43 88.546875 L 1.800781 88.546875 Z M 1.800781 5 "/>
</clipPath>
</defs>
<path fill-rule="nonzero" fill="rgb(100%, 100%, 100%)" fill-opacity="1" d="M 115.777344 49.421875 C 115.113281 49.421875 114.019531 49.421875 112.695312 49.34375 L 112.695312 31.019531 C 113.789062 30.941406 114.722656 30.902344 115.851562 30.902344 C 122.363281 30.902344 126.183594 34.410156 126.183594 39.910156 C 126.183594 45.675781 122.363281 49.421875 115.777344 49.421875 Z M 115.929688 26.421875 C 114.332031 26.421875 111.488281 26.5 109.34375 26.539062 C 108.523438 26.539062 107.902344 27.199219 107.902344 27.980469 L 107.902344 52.382812 C 107.902344 53.164062 108.5625 53.824219 109.34375 53.824219 C 111.878906 53.863281 114.253906 53.902344 115.621094 53.902344 C 126.027344 53.902344 131.253906 47.589844 131.253906 39.910156 C 131.253906 32.695312 126.847656 26.421875 115.929688 26.421875 "/>
<path fill-rule="nonzero" fill="rgb(100%, 100%, 100%)" fill-opacity="1" d="M 145.988281 43.417969 L 137.371094 43.417969 C 137.839844 41.117188 139.28125 39.597656 141.972656 39.597656 C 144.507812 39.597656 145.988281 41.234375 145.988281 43.339844 C 145.988281 43.378906 145.988281 43.378906 145.988281 43.417969 Z M 142.167969 35.855469 C 136.398438 35.855469 132.890625 39.945312 132.890625 45.054688 C 132.890625 50.589844 136.671875 54.253906 142.324219 54.253906 C 144.273438 54.253906 146.339844 53.785156 148.210938 52.617188 C 148.597656 52.382812 148.832031 51.914062 148.832031 51.449219 C 148.832031 51.175781 148.753906 50.902344 148.597656 50.667969 L 148.25 50.160156 C 147.9375 49.730469 147.546875 49.496094 147.117188 49.496094 C 146.84375 49.496094 146.535156 49.613281 146.222656 49.769531 C 145.246094 50.238281 144.234375 50.511719 142.789062 50.511719 C 140.023438 50.511719 137.917969 49.070312 137.527344 46.417969 L 148.910156 46.417969 C 149.613281 46.417969 150.394531 45.675781 150.429688 45.015625 C 150.46875 44.703125 150.46875 44.390625 150.46875 44 C 150.46875 39.089844 146.6875 35.855469 142.167969 35.855469 "/>
<path fill-rule="nonzero" fill="rgb(100%, 100%, 100%)" fill-opacity="1" d="M 162.90625 35.972656 C 160.800781 35.972656 158.929688 36.90625 157.878906 37.882812 C 157.878906 36.945312 157.214844 36.28125 156.433594 36.28125 L 154.835938 36.28125 C 154.058594 36.28125 153.394531 36.945312 153.394531 37.726562 L 153.394531 52.382812 C 153.394531 53.164062 154.058594 53.824219 154.835938 53.824219 L 156.433594 53.824219 C 157.214844 53.824219 157.878906 53.164062 157.878906 52.382812 L 157.878906 41.859375 C 158.929688 40.804688 160.175781 40.179688 161.699219 40.179688 C 164.191406 40.179688 165.636719 41.507812 165.636719 44.3125 L 165.636719 52.382812 C 165.636719 53.164062 166.296875 53.824219 167.078125 53.824219 L 168.675781 53.824219 C 169.453125 53.824219 170.117188 53.164062 170.117188 52.382812 L 170.117188 43.535156 C 170.117188 38.035156 167.195312 35.972656 162.90625 35.972656 "/>
<path fill-rule="nonzero" fill="rgb(100%, 100%, 100%)" fill-opacity="1" d="M 183.253906 50.433594 C 182.941406 49.886719 182.554688 49.652344 182.046875 49.652344 C 181.773438 49.652344 181.5 49.730469 181.148438 49.847656 C 180.800781 49.964844 180.371094 50.042969 179.902344 50.042969 C 178.421875 50.042969 177.796875 48.796875 177.796875 46.886719 L 177.796875 40.492188 L 182.007812 40.492188 C 182.785156 40.492188 183.449219 39.832031 183.449219 39.050781 L 183.449219 37.726562 C 183.449219 36.945312 182.785156 36.28125 182.007812 36.28125 L 177.796875 36.28125 L 177.796875 32.851562 C 177.796875 32.074219 177.132812 31.410156 176.355469 31.410156 L 174.757812 31.410156 C 173.976562 31.410156 173.3125 32.074219 173.3125 32.851562 L 173.3125 47.160156 C 173.3125 51.640625 174.796875 54.214844 178.773438 54.214844 C 180.523438 54.214844 181.851562 53.824219 183.175781 53.046875 C 183.605469 52.8125 183.839844 52.304688 183.839844 51.796875 C 183.839844 51.5625 183.761719 51.332031 183.644531 51.136719 L 183.253906 50.433594 "/>
<path fill-rule="nonzero" fill="rgb(100%, 100%, 100%)" fill-opacity="1" d="M 198.183594 48.25 C 197.289062 49.226562 195.769531 50.082031 194.167969 50.082031 C 191.441406 50.082031 189.53125 48.328125 189.53125 45.25 C 189.53125 42.480469 191.324219 40.0625 194.753906 40.0625 C 196 40.0625 197.132812 40.414062 198.183594 40.921875 Z M 201.617188 37.375 C 199.78125 36.515625 197.289062 35.855469 194.792969 35.855469 C 188.867188 35.855469 184.734375 39.945312 184.734375 45.054688 C 184.734375 50.550781 188.089844 54.253906 193.351562 54.253906 C 195.300781 54.253906 197.015625 53.511719 198.183594 52.421875 C 198.183594 53.203125 198.808594 53.824219 199.546875 53.824219 L 201.226562 53.824219 C 202.003906 53.824219 202.667969 53.164062 202.667969 52.382812 L 202.667969 39.050781 C 202.667969 38.425781 202.199219 37.648438 201.617188 37.375 "/>
<path fill-rule="nonzero" fill="rgb(100%, 100%, 100%)" fill-opacity="1" d="M 215.570312 50.472656 C 215.257812 49.886719 214.90625 49.691406 214.480469 49.691406 C 214.128906 49.691406 213.738281 49.808594 213.269531 49.925781 C 213.074219 49.964844 212.84375 50.003906 212.648438 50.003906 C 211.632812 50.003906 211.128906 49.148438 211.128906 47.160156 L 211.128906 27.980469 C 211.128906 27.199219 210.464844 26.539062 209.683594 26.539062 L 208.085938 26.539062 C 207.304688 26.539062 206.644531 27.199219 206.644531 27.980469 L 206.644531 48.992188 C 206.644531 52.578125 208.125 54.214844 210.933594 54.214844 C 212.335938 54.214844 213.894531 53.980469 215.21875 53.242188 C 215.84375 52.851562 216.15625 52.382812 216.15625 51.875 C 216.15625 51.683594 216.117188 51.488281 216 51.292969 L 215.570312 50.472656 "/>
<path fill-rule="nonzero" fill="rgb(100%, 100%, 100%)" fill-opacity="1" d="M 245.46875 48.835938 C 245.195312 48.367188 244.730469 48.171875 244.222656 48.171875 C 243.949219 48.171875 243.636719 48.25 243.324219 48.40625 C 241.765625 49.265625 240.246094 49.769531 238.414062 49.769531 C 232.839844 49.769531 228.980469 45.871094 228.980469 40.179688 C 228.980469 34.253906 232.800781 30.589844 237.867188 30.589844 C 239.660156 30.589844 241.179688 31.136719 242.703125 31.917969 C 242.976562 32.074219 243.285156 32.152344 243.558594 32.152344 C 244.027344 32.152344 244.417969 31.917969 244.730469 31.410156 L 245.546875 29.96875 C 245.703125 29.695312 245.78125 29.421875 245.78125 29.1875 C 245.78125 28.679688 245.46875 28.292969 245.003906 28.058594 C 242.976562 26.925781 240.285156 26.109375 237.867188 26.109375 C 228.863281 26.109375 223.910156 32.34375 223.910156 40.179688 C 223.910156 48.679688 229.644531 54.253906 237.984375 54.253906 C 240.441406 54.253906 243.011719 53.824219 245.898438 51.914062 C 246.25 51.683594 246.445312 51.253906 246.445312 50.824219 C 246.445312 50.511719 246.367188 50.199219 246.171875 49.925781 L 245.46875 48.835938 "/>
<path fill-rule="nonzero" fill="rgb(100%, 100%, 100%)" fill-opacity="1" d="M 259.035156 36.242188 C 258.566406 36.050781 258.023438 35.972656 257.515625 35.972656 C 255.410156 35.972656 254.320312 36.867188 253.5 37.84375 C 253.5 36.945312 252.835938 36.28125 252.058594 36.28125 L 250.460938 36.28125 C 249.679688 36.28125 249.015625 36.945312 249.015625 37.726562 L 249.015625 52.382812 C 249.015625 53.164062 249.679688 53.824219 250.460938 53.824219 L 252.058594 53.824219 C 252.835938 53.824219 253.5 53.164062 253.5 52.382812 L 253.5 42.050781 C 254.007812 41.039062 254.824219 40.179688 256.304688 40.179688 C 256.578125 40.179688 256.851562 40.21875 257.046875 40.257812 C 257.242188 40.296875 257.398438 40.296875 257.554688 40.296875 C 258.292969 40.296875 258.800781 39.945312 259.152344 39.167969 L 259.738281 37.921875 C 259.816406 37.765625 259.855469 37.570312 259.855469 37.375 C 259.855469 36.90625 259.621094 36.476562 259.035156 36.242188 "/>
<path fill-rule="nonzero" fill="rgb(100%, 100%, 100%)" fill-opacity="1" d="M 274.121094 48.25 C 273.222656 49.226562 271.703125 50.082031 270.105469 50.082031 C 267.378906 50.082031 265.46875 48.328125 265.46875 45.25 C 265.46875 42.480469 267.261719 40.0625 270.691406 40.0625 C 271.9375 40.0625 273.070312 40.414062 274.121094 40.921875 Z M 277.550781 37.375 C 275.71875 36.515625 273.222656 35.855469 270.730469 35.855469 C 264.804688 35.855469 260.671875 39.945312 260.671875 45.054688 C 260.671875 50.550781 264.023438 54.253906 269.289062 54.253906 C 271.238281 54.253906 272.953125 53.511719 274.121094 52.421875 C 274.121094 53.203125 274.746094 53.824219 275.484375 53.824219 L 277.160156 53.824219 C 277.941406 53.824219 278.605469 53.164062 278.605469 52.382812 L 278.605469 39.050781 C 278.605469 38.425781 278.136719 37.648438 277.550781 37.375 "/>
<path fill-rule="nonzero" fill="rgb(100%, 100%, 100%)" fill-opacity="1" d="M 304.769531 50.433594 C 304.460938 49.886719 304.070312 49.652344 303.5625 49.652344 C 303.289062 49.652344 303.015625 49.730469 302.667969 49.847656 C 302.316406 49.964844 301.886719 50.042969 301.417969 50.042969 C 299.9375 50.042969 299.3125 48.796875 299.3125 46.886719 L 299.3125 40.492188 L 303.523438 40.492188 C 304.304688 40.492188 304.964844 39.832031 304.964844 39.050781 L 304.964844 37.726562 C 304.964844 36.945312 304.304688 36.28125 303.523438 36.28125 L 299.3125 36.28125 L 299.3125 32.851562 C 299.3125 32.074219 298.652344 31.410156 297.871094 31.410156 L 296.273438 31.410156 C 295.492188 31.410156 294.832031 32.074219 294.832031 32.851562 L 294.832031 36.28125 L 287.257812 36.28125 L 287.257812 33.789062 C 287.257812 31.371094 288.3125 30.320312 289.832031 30.320312 C 290.21875 30.320312 290.53125 30.359375 290.882812 30.4375 C 291.078125 30.476562 291.3125 30.515625 291.46875 30.515625 C 292.171875 30.515625 292.714844 30.164062 293.066406 29.539062 L 293.417969 28.914062 C 293.535156 28.71875 293.613281 28.488281 293.613281 28.253906 C 293.613281 27.746094 293.339844 27.238281 292.871094 27.003906 C 291.625 26.34375 290.492188 26.109375 289.011719 26.109375 C 285.113281 26.109375 282.773438 28.566406 282.773438 33.4375 L 282.773438 52.382812 C 282.773438 53.164062 283.4375 53.824219 284.21875 53.824219 L 285.816406 53.824219 C 286.59375 53.824219 287.257812 53.164062 287.257812 52.382812 L 287.257812 40.492188 L 294.832031 40.492188 L 294.832031 47.160156 C 294.832031 51.640625 296.3125 54.214844 300.289062 54.214844 C 302.042969 54.214844 303.367188 53.824219 304.695312 53.046875 C 305.121094 52.8125 305.355469 52.304688 305.355469 51.796875 C 305.355469 51.5625 305.277344 51.332031 305.160156 51.136719 L 304.769531 50.433594 "/>
<path fill-rule="nonzero" fill="rgb(100%, 100%, 100%)" fill-opacity="1" d="M 319.351562 43.417969 L 310.738281 43.417969 C 311.203125 41.117188 312.644531 39.597656 315.335938 39.597656 C 317.871094 39.597656 319.351562 41.234375 319.351562 43.339844 C 319.351562 43.378906 319.351562 43.378906 319.351562 43.417969 Z M 315.53125 35.855469 C 309.761719 35.855469 306.253906 39.945312 306.253906 45.054688 C 306.253906 50.589844 310.035156 54.253906 315.6875 54.253906 C 317.636719 54.253906 319.703125 53.785156 321.574219 52.617188 C 321.964844 52.382812 322.195312 51.914062 322.195312 51.449219 C 322.195312 51.175781 322.121094 50.902344 321.964844 50.667969 L 321.613281 50.160156 C 321.300781 49.730469 320.910156 49.496094 320.480469 49.496094 C 320.210938 49.496094 319.898438 49.613281 319.585938 49.769531 C 318.609375 50.238281 317.597656 50.511719 316.152344 50.511719 C 313.386719 50.511719 311.28125 49.070312 310.890625 46.417969 L 322.273438 46.417969 C 322.976562 46.417969 323.757812 45.675781 323.792969 45.015625 C 323.835938 44.703125 323.835938 44.390625 323.835938 44 C 323.835938 39.089844 320.054688 35.855469 315.53125 35.855469 "/>
<path fill-rule="nonzero" fill="rgb(100%, 100%, 100%)" fill-opacity="1" d="M 336.777344 36.242188 C 336.308594 36.050781 335.761719 35.972656 335.257812 35.972656 C 333.152344 35.972656 332.058594 36.867188 331.242188 37.84375 C 331.242188 36.945312 330.578125 36.28125 329.796875 36.28125 L 328.199219 36.28125 C 327.421875 36.28125 326.757812 36.945312 326.757812 37.726562 L 326.757812 52.382812 C 326.757812 53.164062 327.421875 53.824219 328.199219 53.824219 L 329.796875 53.824219 C 330.578125 53.824219 331.242188 53.164062 331.242188 52.382812 L 331.242188 42.050781 C 331.746094 41.039062 332.566406 40.179688 334.046875 40.179688 C 334.320312 40.179688 334.59375 40.21875 334.789062 40.257812 C 334.984375 40.296875 335.140625 40.296875 335.292969 40.296875 C 336.035156 40.296875 336.542969 39.945312 336.894531 39.167969 L 337.476562 37.921875 C 337.554688 37.765625 337.59375 37.570312 337.59375 37.375 C 337.59375 36.90625 337.359375 36.476562 336.777344 36.242188 "/>
<path fill-rule="nonzero" fill="rgb(100%, 100%, 100%)" fill-opacity="1" d="M 343.089844 41.117188 C 343.089844 40.335938 343.910156 39.597656 345.273438 39.597656 C 346.597656 39.597656 347.691406 39.867188 348.742188 40.414062 C 349.09375 40.570312 349.40625 40.6875 349.71875 40.6875 C 350.148438 40.6875 350.496094 40.492188 350.808594 40.0625 L 351.238281 39.441406 C 351.394531 39.207031 351.472656 38.933594 351.472656 38.660156 C 351.472656 38.191406 351.238281 37.726562 350.886719 37.492188 C 349.484375 36.59375 347.613281 35.855469 345.039062 35.855469 C 341.414062 35.855469 338.609375 37.765625 338.609375 41.195312 C 338.609375 47.589844 348.082031 46.027344 348.082031 48.875 C 348.082031 49.964844 347.066406 50.511719 345.78125 50.511719 C 344.105469 50.511719 342.699219 50.042969 341.453125 49.226562 C 341.0625 48.953125 340.671875 48.796875 340.285156 48.796875 C 339.933594 48.796875 339.621094 48.953125 339.347656 49.304688 L 338.765625 50.042969 C 338.570312 50.277344 338.492188 50.589844 338.492188 50.863281 C 338.492188 51.214844 338.609375 51.5625 338.921875 51.835938 C 340.753906 53.4375 342.738281 54.253906 345.46875 54.253906 C 349.757812 54.253906 352.5625 52.109375 352.5625 48.640625 C 352.5625 42.441406 343.089844 44.042969 343.089844 41.117188 "/>
<path fill-rule="nonzero" fill="rgb(100%, 100%, 100%)" fill-opacity="1" d="M 384.140625 27.863281 C 384.140625 27.042969 384.839844 26.34375 385.699219 26.34375 C 386.554688 26.34375 387.257812 27.042969 387.257812 27.863281 L 387.257812 52.421875 C 387.257812 53.394531 386.710938 54.097656 385.855469 54.097656 C 385.035156 54.097656 384.527344 53.707031 383.867188 52.890625 L 367.570312 32.34375 L 367.570312 52.578125 C 367.570312 53.394531 366.871094 54.097656 366.011719 54.097656 C 365.15625 54.097656 364.453125 53.394531 364.453125 52.578125 L 364.453125 28.175781 C 364.453125 27.238281 364.921875 26.34375 365.972656 26.34375 C 366.792969 26.34375 367.300781 26.734375 368.078125 27.746094 L 384.140625 48.054688 L 384.140625 27.863281 "/>
<path fill-rule="nonzero" fill="rgb(100%, 100%, 100%)" fill-opacity="1" d="M 400.902344 38.816406 C 397.707031 38.816406 395.679688 40.804688 395.328125 43.496094 L 405.96875 43.496094 C 405.8125 40.609375 403.941406 38.816406 400.902344 38.816406 Z M 409.167969 44.78125 C 409.128906 45.40625 408.464844 46.027344 407.839844 46.027344 L 395.523438 46.027344 C 395.796875 49.34375 398.210938 51.289062 401.640625 51.289062 C 403.398438 51.289062 404.722656 50.941406 405.929688 50.238281 C 406.203125 50.082031 406.515625 50.003906 406.789062 50.003906 C 407.179688 50.003906 407.527344 50.160156 407.839844 50.511719 C 407.996094 50.707031 408.074219 50.941406 408.074219 51.214844 C 408.074219 51.640625 407.917969 52.070312 407.605469 52.265625 C 405.617188 53.667969 403.59375 54.214844 401.410156 54.214844 C 395.714844 54.214844 392.015625 50.589844 392.015625 45.054688 C 392.015625 39.945312 395.289062 35.894531 401.058594 35.894531 C 405.578125 35.894531 409.207031 39.089844 409.207031 43.921875 C 409.207031 44.234375 409.207031 44.507812 409.167969 44.78125 "/>
<path fill-rule="nonzero" fill="rgb(100%, 100%, 100%)" fill-opacity="1" d="M 421.015625 50.746094 C 421.71875 50.746094 422.34375 51.214844 422.34375 52.03125 C 422.34375 52.5 422.109375 52.929688 421.523438 53.28125 C 420.511719 53.902344 419.261719 54.136719 417.78125 54.136719 C 413.84375 54.136719 412.285156 51.640625 412.285156 47.160156 L 412.285156 32.890625 C 412.285156 32.074219 412.945312 31.410156 413.84375 31.410156 C 414.742188 31.410156 415.402344 32.074219 415.402344 32.890625 L 415.402344 36.28125 L 419.5625 36.28125 C 420.382812 36.28125 421.046875 36.945312 421.046875 37.726562 C 421.046875 38.542969 420.382812 39.207031 419.5625 39.207031 L 415.402344 39.207031 L 415.402344 46.847656 C 415.402344 49.613281 416.300781 51.214844 418.523438 51.214844 C 419.535156 51.214844 420.429688 50.746094 421.015625 50.746094 "/>
<path fill-rule="nonzero" fill="rgb(100%, 100%, 100%)" fill-opacity="1" d="M 441.871094 49.847656 C 442.066406 48.953125 442.300781 48.054688 442.574219 47.160156 L 445.457031 37.257812 C 445.652344 36.59375 446.238281 36.085938 446.941406 36.085938 C 447.914062 36.085938 448.460938 36.75 448.460938 37.492188 C 448.460938 37.648438 448.421875 37.804688 448.382812 37.960938 L 443.664062 52.851562 C 443.429688 53.628906 442.808594 54.097656 441.949219 54.097656 C 441.054688 54.097656 440.429688 53.628906 440.15625 52.890625 L 436.21875 42.558594 C 435.949219 41.859375 435.753906 41.15625 435.558594 40.414062 C 435.324219 41.234375 435.128906 41.9375 434.816406 42.675781 L 430.996094 52.851562 C 430.683594 53.707031 430.097656 54.097656 429.28125 54.097656 C 428.5 54.097656 427.917969 53.707031 427.644531 52.851562 L 422.769531 38.113281 C 422.734375 37.960938 422.691406 37.765625 422.691406 37.609375 C 422.691406 36.789062 423.394531 36.085938 424.292969 36.085938 C 425.070312 36.085938 425.617188 36.554688 425.8125 37.21875 L 428.96875 47.355469 C 429.242188 48.210938 429.398438 48.992188 429.632812 49.808594 C 429.867188 49.03125 430.023438 48.328125 430.375 47.355469 L 433.957031 37.414062 C 434.269531 36.554688 434.816406 36.085938 435.714844 36.085938 C 436.570312 36.085938 437.117188 36.554688 437.429688 37.414062 L 441.054688 47.316406 C 441.367188 48.132812 441.597656 48.992188 441.871094 49.847656 "/>
<path fill-rule="nonzero" fill="rgb(100%, 100%, 100%)" fill-opacity="1" d="M 458.871094 51.289062 C 462.378906 51.289062 464.910156 48.796875 464.910156 45.054688 C 464.910156 41.390625 462.378906 38.816406 458.871094 38.816406 C 455.4375 38.816406 452.828125 41.351562 452.828125 45.054688 C 452.828125 48.71875 455.359375 51.289062 458.871094 51.289062 Z M 458.871094 35.894531 C 464.480469 35.894531 468.226562 39.792969 468.226562 45.054688 C 468.226562 50.316406 464.480469 54.214844 458.871094 54.214844 C 453.253906 54.214844 449.511719 50.316406 449.511719 45.054688 C 449.511719 39.792969 453.253906 35.894531 458.871094 35.894531 "/>
<path fill-rule="nonzero" fill="rgb(100%, 100%, 100%)" fill-opacity="1" d="M 474.8125 52.539062 C 474.8125 53.394531 474.109375 54.097656 473.253906 54.097656 C 472.394531 54.097656 471.691406 53.394531 471.691406 52.539062 L 471.691406 37.648438 C 471.691406 36.789062 472.394531 36.085938 473.253906 36.085938 C 474.109375 36.085938 474.8125 36.789062 474.8125 37.648438 L 474.8125 38.347656 C 475.707031 37.023438 476.996094 35.972656 479.21875 35.972656 C 479.839844 35.972656 480.347656 36.085938 480.816406 36.207031 C 481.441406 36.402344 481.945312 36.789062 481.945312 37.453125 C 481.945312 37.609375 481.90625 37.765625 481.867188 37.960938 C 481.632812 38.738281 481.128906 39.050781 480.308594 39.050781 C 480.074219 39.050781 479.800781 39.011719 479.527344 38.972656 C 479.179688 38.894531 478.828125 38.894531 478.476562 38.894531 C 476.449219 38.894531 475.476562 40.101562 474.8125 41.390625 L 474.8125 52.539062 "/>
<g clip-path="url(#clip-0)">
<path fill-rule="nonzero" fill="rgb(100%, 100%, 100%)" fill-opacity="1" d="M 488.730469 45.796875 C 488.457031 45.484375 488.300781 45.054688 488.300781 44.664062 C 488.300781 44.273438 488.457031 43.847656 488.730469 43.535156 L 494.460938 36.90625 C 494.886719 36.402344 495.355469 36.085938 495.863281 36.085938 C 496.800781 36.085938 497.382812 36.710938 497.382812 37.414062 C 497.382812 37.804688 497.226562 38.15625 496.917969 38.503906 L 491.535156 44.429688 L 497.8125 51.484375 C 498.125 51.875 498.28125 52.265625 498.28125 52.65625 C 498.28125 53.433594 497.695312 54.097656 496.71875 54.097656 C 496.058594 54.097656 495.628906 53.785156 495.199219 53.28125 Z M 487.09375 52.617188 C 487.09375 53.433594 486.429688 54.097656 485.53125 54.097656 C 484.636719 54.097656 483.972656 53.433594 483.972656 52.617188 L 483.972656 28.019531 C 483.972656 27.199219 484.636719 26.539062 485.53125 26.539062 C 486.429688 26.539062 487.09375 27.199219 487.09375 28.019531 L 487.09375 52.617188 "/>
</g>
<g clip-path="url(#clip-1)">
<path fill-rule="nonzero" fill="rgb(46.09375%, 82.434082%, 91.836548%)" fill-opacity="1" d="M 81.585938 5.429688 L 42.523438 56.675781 L 42.535156 56.6875 L 57.578125 76.425781 L 65.425781 86.722656 C 67.960938 90.046875 73.125 88.519531 73.65625 84.59375 L 73.660156 84.558594 C 73.664062 84.535156 73.664062 84.511719 73.667969 84.492188 L 73.964844 81.941406 L 83.132812 12.910156 C 83.515625 10.1875 82.898438 7.578125 81.585938 5.429688 "/>
</g>
<g clip-path="url(#clip-2)">
<path fill-rule="nonzero" fill="rgb(68.232727%, 7.278442%, 16.244507%)" fill-opacity="1" d="M 1.914062 12.910156 L 11.082031 81.941406 L 11.378906 84.492188 C 11.382812 84.511719 11.386719 84.535156 11.386719 84.558594 L 11.390625 84.59375 L 11.394531 84.59375 C 11.921875 88.519531 17.085938 90.046875 19.621094 86.722656 L 27.46875 76.425781 L 42.515625 56.6875 L 42.523438 56.675781 L 3.460938 5.429688 C 2.148438 7.578125 1.53125 10.1875 1.914062 12.910156 "/>
</g>
<path fill-rule="nonzero" fill="rgb(44.27948%, 36.462402%, 69.10553%)" fill-opacity="1" d="M 81.507812 5.3125 C 81.414062 5.160156 81.316406 5.011719 81.214844 4.863281 C 81.199219 4.84375 81.183594 4.824219 81.167969 4.800781 C 81.152344 4.773438 81.128906 4.75 81.109375 4.722656 C 80.921875 4.472656 80.730469 4.222656 80.527344 3.984375 C 80.488281 3.933594 80.445312 3.882812 80.402344 3.835938 C 80.183594 3.585938 79.953125 3.347656 79.714844 3.121094 C 79.65625 3.066406 79.601562 3.015625 79.542969 2.964844 C 79.292969 2.734375 79.03125 2.507812 78.757812 2.300781 C 78.746094 2.292969 78.730469 2.28125 78.714844 2.269531 C 78.445312 2.066406 78.160156 1.875 77.867188 1.695312 C 77.808594 1.660156 77.75 1.621094 77.6875 1.585938 C 77.394531 1.410156 77.09375 1.25 76.785156 1.101562 C 76.722656 1.070312 76.65625 1.042969 76.59375 1.015625 C 76.265625 0.867188 75.933594 0.730469 75.59375 0.613281 C 75.589844 0.609375 75.585938 0.609375 75.582031 0.609375 C 75.242188 0.492188 74.890625 0.394531 74.535156 0.3125 C 74.46875 0.296875 74.402344 0.28125 74.332031 0.265625 C 73.984375 0.191406 73.632812 0.128906 73.273438 0.0859375 C 73.203125 0.078125 73.132812 0.0742188 73.0625 0.0664062 C 72.683594 0.0273438 72.304688 0.00390625 71.917969 0.00390625 L 71.769531 0.00390625 C 68.566406 0.00390625 65.390625 0.484375 62.308594 1.34375 C 57.753906 2.609375 53.019531 3.441406 48.15625 3.808594 C 47.40625 3.867188 46.65625 3.910156 45.902344 3.941406 C 44.78125 3.992188 43.65625 4.027344 42.523438 4.027344 C 41.445312 4.027344 40.375 3.996094 39.308594 3.953125 C 38.453125 3.914062 37.597656 3.863281 36.746094 3.796875 C 31.933594 3.421875 27.25 2.59375 22.738281 1.34375 C 19.65625 0.484375 16.480469 0.00390625 13.28125 0.00390625 L 13.128906 0.00390625 C 12.742188 0.00390625 12.363281 0.0273438 11.984375 0.0664062 C 11.914062 0.0742188 11.84375 0.078125 11.773438 0.0859375 C 11.414062 0.128906 11.0625 0.191406 10.714844 0.265625 C 10.644531 0.28125 10.578125 0.296875 10.511719 0.3125 C 10.15625 0.394531 9.804688 0.492188 9.464844 0.609375 C 9.460938 0.609375 9.457031 0.609375 9.453125 0.613281 C 9.113281 0.730469 8.78125 0.867188 8.453125 1.015625 C 8.390625 1.042969 8.324219 1.070312 8.261719 1.101562 C 7.953125 1.25 7.652344 1.410156 7.359375 1.585938 C 7.296875 1.621094 7.238281 1.660156 7.179688 1.695312 C 6.886719 1.875 6.605469 2.066406 6.332031 2.269531 C 6.316406 2.28125 6.304688 2.292969 6.289062 2.300781 C 6.015625 2.507812 5.757812 2.734375 5.503906 2.964844 C 5.445312 3.015625 5.390625 3.066406 5.332031 3.121094 C 5.09375 3.347656 4.863281 3.585938 4.644531 3.835938 C 4.601562 3.882812 4.558594 3.933594 4.519531 3.984375 C 4.316406 4.222656 4.125 4.472656 3.9375 4.722656 C 3.917969 4.75 3.894531 4.773438 3.878906 4.800781 C 3.863281 4.824219 3.847656 4.84375 3.832031 4.863281 C 3.730469 5.011719 3.632812 5.160156 3.539062 5.3125 C 3.511719 5.351562 3.484375 5.390625 3.460938 5.429688 L 42.523438 56.675781 L 81.585938 5.429688 C 81.5625 5.390625 81.535156 5.351562 81.507812 5.3125 "/>
</svg>
